<svg width="48" height="48" viewBox="0 0 48 48" fill="none" xmlns="http://www.w3.org/2000/svg">
<path fill-rule="evenodd" clip-rule="evenodd" d="M22.9464 12.1967C23.28 12.0655 23.6421 12 24.0043 12V12.0011C24.8974 12.0021 25.79 12.4022 26.2539 13.2014L30.7114 20.8767L35.8967 18.4605C36.7771 18.0475 37.8135 18.1645 38.583 18.7462C39.3559 19.3347 39.7337 20.2984 39.557 21.2518L37.2971 33.8729C37.0787 35.1016 36.0007 35.9999 34.739 35.9999H13.2663C12.0081 35.9999 10.9301 35.1016 10.7013 33.8729L8.4414 21.2518C8.2681 20.2984 8.64591 19.3347 9.41886 18.7462C10.1918 18.1645 11.2282 18.0509 12.1051 18.4605L17.2905 20.8767L17.2913 20.8752" fill="#000000"/>
</svg>
